HIERARCHY
ROOT pelvis
{
  OFFSET 0 100 0
  CHANNELS 6 Xposition Yposition Zposition Zrotation Xrotation Yrotation
  JOINT pelvis_right_femur
  {
    OFFSET -10.78128 -3.44521 -0.5502486
    CHANNELS 3 Zrotation Xrotation Yrotation
    JOINT right_femur_tibia
    {
      OFFSET -0.8047443 -44.0398 -0.1307829
      CHANNELS 3 Zrotation Xrotation Yrotation
      JOINT right_tibia_foot
      {
        OFFSET 3.006224 -47.83518 -5
        CHANNELS 3 Zrotation Xrotation Yrotation
        End Site
        {
          OFFSET 0 -5 15
        }
      }
    }
  }
  JOINT pelvis_left_femur
  {
    OFFSET 10.78128 -3.44521 -0.5502486
    CHANNELS 3 Zrotation Xrotation Yrotation
    JOINT left_femur_tibia
    {
      OFFSET 0.8047443 -44.0398 -0.1307829
      CHANNELS 3 Zrotation Xrotation Yrotation
      JOINT left_tibia_foot
      {
        OFFSET -4.370144 -48.10324 -4.275266
        CHANNELS 3 Zrotation Xrotation Yrotation
        End Site
        {
          OFFSET 0 -5 15
        }
      }
    }
  }
  JOINT pelvis_spine1
  {
    OFFSET 0 6.468898 -3.129235
    CHANNELS 3 Zrotation Xrotation Yrotation
    JOINT spine1
    {
      OFFSET 0 23.15396 4.99043
      CHANNELS 3 Zrotation Xrotation Yrotation
      JOINT spine2
      {
        OFFSET 0 20.79997 -5.064912
        CHANNELS 3 Zrotation Xrotation Yrotation
        JOINT neck
        {
          OFFSET 0 14.38658 9.616178
          CHANNELS 3 Zrotation Xrotation Yrotation
          End Site
          {
            OFFSET 0 20 0
          }
        }
      }
      JOINT right_manubrium
      {
        OFFSET -5.722621 16.35077 3.967754
        CHANNELS 3 Zrotation Xrotation Yrotation
        JOINT right_clavicle
        {
          OFFSET -13.16364 1.694482 -4.693211
          CHANNELS 3 Zrotation Xrotation Yrotation
          JOINT right_humerus
          {
            OFFSET -28.5034 -0.3100689 -2.792744
            CHANNELS 3 Zrotation Xrotation Yrotation
            JOINT right_radius
            {
              OFFSET -25.15693 0.02248979 -1.271978
              CHANNELS 3 Zrotation Xrotation Yrotation
              End Site
              {
                OFFSET -15 0 0
              }
            }
          }
        }
      }
      JOINT left_manubrium
      {
        OFFSET 5.722621 16.35077 3.967754
        CHANNELS 3 Zrotation Xrotation Yrotation
        JOINT left_clavicle
        {
          OFFSET 13.16364 1.694482 -4.693211
          CHANNELS 3 Zrotation Xrotation Yrotation
          JOINT left_humerus
          {
            OFFSET 29.39168 -1.063119 -2.237045
            CHANNELS 3 Zrotation Xrotation Yrotation
            JOINT left_radius
            {
              OFFSET 24.59957 -0.9528479 0.9047498
              CHANNELS 3 Zrotation Xrotation Yrotation
              End Site
              {
                OFFSET 15 -0 -0
              }
            }
          }
        }
      }
    }
  }
}
MOTION
Frames: 15
Frame Time: 0.0416666666667
1641.247 98.62512 2469.288 7.506876 -1.324939 62.55776 -0.2820787 5.992956 4.278978 -0 54.66837 -0 -2.315981 8.163604 -3.83554 -6.226991 -7.022009 -7.495638 -0 20.29686 -0 -1.636407 -11.93797 17.67669 -4.036046 -1.155255 6.017399 -0.4502804 11.787 -5.363818 1.227996 21.874 5.191037 2.372502 -20.32372 5.985316 0.6512506 -20.85348 10.91179 88.68437 22.26454 -13.44567 -0 0 17.35917 -20.9547 6.132665 13.16925 3.422308 -17.94869 -3.848014 -91.3932 24.59342 23.59087 0 0 -11.47217 -0.4960217 3.404959 15.82195
1646.853 100.0255 2471.298 7.46333 -1.775836 63.98784 0.4656526 -1.481462 3.767884 -0 55.74465 -0 -2.385298 7.834023 -4.782411 -6.216705 -1.681409 -7.800918 -0 17.48193 -0 -1.612613 -13.68053 16.95335 -3.497113 -0.6607147 4.885197 -0.1061487 12.00305 -6.343158 0.8651181 21.87959 5.665709 2.348979 -20.22397 6.165175 0.8976655 -20.36111 11.12195 89.86238 22.49285 -15.4151 -0 0 16.18777 -20.33438 6.72964 12.63915 3.705188 -19.10737 -4.587855 -89.77597 24.91171 20.96277 0 0 -14.28491 -0.2635432 3.77581 15.37925
1652.027 100.9144 2473.119 7.038715 -2.207015 65.26942 1.164035 -9.396567 3.128548 -0 51.54428 -0 -2.662327 5.91147 -5.504719 -5.873535 3.350749 -8.084633 -0 14.28323 -0 -2.07998 -15.73941 16.05606 -2.720517 -0.09954239 3.950556 0.2443529 11.87277 -7.229979 0.689226 21.88711 6.087199 2.357503 -20.10247 6.48191 0.8412084 -19.78176 11.10928 90.8879 22.66831 -17.38566 -0 0 15.08223 -19.76145 7.468718 11.96359 4.326438 -20.45534 -5.176275 -88.12353 25.38427 17.89184 0 0 -17.5974 0.06699404 4.609312 14.90216
1656.955 101.013 2474.902 6.411436 -2.330942 66.25307 1.446615 -16.79356 2.311587 -0 41.89319 -0 -3.021133 3.280544 -6.078754 -5.507442 7.859226 -8.232125 -0 11.50978 -0 -2.721207 -18.16308 15.0916 -2.154885 0.4252248 3.338354 0.638175 11.40922 -7.931107 0.7802188 21.90514 6.30553 2.36841 -19.98462 6.863932 0.4735697 -19.00824 10.89233 91.78731 22.66506 -19.30113 -0 0 13.72612 -19.32442 8.180168 11.21151 5.180533 -21.86657 -5.541428 -86.33958 25.73042 14.23976 0 0 -21.093 0.6157672 5.6703 14.08125
1661.881 100.2628 2476.799 5.779291 -1.952475 66.93974 1.141076 -22.31226 1.365122 -0 29.38759 -0 -3.233474 0.9780098 -6.552244 -5.406652 11.5616 -8.132842 -0 9.828822 -0 -3.014332 -20.46603 14.26585 -2.153881 0.6993162 3.048311 1.113376 10.78127 -8.425931 1.044552 21.90888 6.274351 2.32218 -19.90923 7.189295 -0.02384657 -18.08253 10.61049 92.52354 22.59839 -21.0227 -0 0 11.97841 -19.11098 8.764956 10.61355 5.992114 -23.06868 -5.64734 -84.46792 25.50887 10.35931 0 0 -24.30046 1.431301 6.503006 12.68755
1666.995 98.84685 2478.874 5.155115 -1.229986 67.43774 0.5960741 -25.54312 0.5949595 -0 17.97933 -0 -3.298318 -0.2418454 -6.861388 -5.569505 14.29107 -7.854697 -0 9.195691 -0 -2.797476 -22.10767 13.71781 -2.559787 0.5841268 2.991417 1.613232 10.26443 -8.782956 1.290326 21.81126 6.095214 2.244327 -20.02226 7.34037 -0.4345374 -17.30721 10.42762 93.11884 22.57326 -22.51573 -0 0 10.14614 -18.95407 9.104758 10.25546 6.584725 -23.96348 -5.558971 -82.91623 24.75306 7.242022 0 0 -26.97186 2.33777 6.841748 11.09706
1672.418 96.99773 2481.151 4.585464 -0.4584453 67.86886 0.2231988 -27.08077 0.2254879 -0 9.362702 -0 -3.263535 -0.6482483 -7.092176 -5.824501 16.37369 -7.524946 -0 9.401456 -0 -2.39444 -22.97633 13.38813 -3.023272 0.1561827 3.024143 2.044951 9.876901 -9.016305 1.482327 21.63721 5.815713 2.116388 -20.28003 7.345728 -0.7862282 -16.75028 10.30941 93.64634 22.3568 -23.76195 -0 0 8.483506 -18.59522 9.144353 9.946714 6.990269 -24.53066 -5.338748 -81.79675 23.77928 5.090405 0 0 -29.10725 3.214635 6.793538 9.608847
1678.237 94.9972 2483.669 4.159611 0.08868267 68.33627 0.3259315 -27.47756 0.4189187 -0 4.493168 -0 -3.197071 -0.8093421 -7.404293 -5.968981 18.27401 -7.303931 -0 10.745 -0 -2.237235 -22.93568 13.19477 -3.273858 -0.4640395 2.961054 2.32375 9.496601 -9.096465 1.669769 21.49444 5.454068 1.905589 -20.49494 7.311469 -1.072243 -16.22158 10.13565 94.10644 21.94525 -24.67975 -0 0 6.987823 -17.83891 9.012162 9.427937 7.236556 -24.68297 -4.982445 -80.99283 22.88981 3.597969 0 0 -30.61556 4.064745 6.669012 8.271323
1684.482 93.25122 2486.478 3.900233 0.08966351 68.88569 1.240931 -27.17168 1.374899 -0 4.526334 -0 -3.241985 -1.166896 -7.863725 -5.718524 20.17899 -7.403072 -0 14.10484 -0 -2.748612 -21.64658 13.11864 -3.059614 -1.073685 2.606748 2.40039 9.058744 -9.021606 1.876318 21.46964 5.116842 1.674377 -20.5117 7.362011 -1.057994 -15.47488 9.848809 94.35813 21.85388 -25.12779 -0 0 5.605898 -16.57842 9.024011 8.493265 7.285057 -24.31555 -4.482653 -80.48911 22.37779 2.582759 0 0 -31.08541 4.951056 6.834495 7.051019
1691.065 92.24366 2489.562 3.614688 -0.6079659 69.42747 3.153228 -26.45595 3.105014 -0 8.911213 -0 -3.5158 -1.654766 -8.18453 -4.887175 21.4778 -7.851748 -0 20.39501 -0 -3.886285 -18.84934 13.19781 -2.301887 -1.397638 1.980325 2.414641 8.780215 -8.924028 1.981838 21.45615 5.036554 1.638702 -20.51181 7.496417 -0.3466088 -14.56653 9.656731 94.14569 22.89945 -25.09114 -0 0 4.423625 -14.97806 9.456588 7.292471 7.065866 -23.55231 -3.941652 -80.56164 22.18878 2.420701 0 0 -30.03425 5.971547 7.24629 5.803441
1697.775 92.2167 2492.756 3.240558 -1.622218 69.75068 5.410354 -25.01961 4.950109 -0 14.07137 -0 -3.896498 -2.00006 -7.904867 -3.854284 20.93333 -8.254061 -0 29.10941 -0 -4.91493 -15.08098 13.42984 -1.371673 -1.305854 1.536709 2.586451 9.008866 -8.923469 1.830883 21.31416 5.293783 1.923493 -20.78534 7.519686 1.000837 -13.9866 9.872458 93.41804 24.96973 -24.73685 -0 0 3.790646 -13.64424 10.10443 6.433673 6.580177 -22.80192 -3.579253 -81.46511 21.90089 3.614384 0 0 -27.69359 6.951221 7.336717 4.592713
1704.394 93.01677 2495.871 3.281945 -2.406374 69.70138 6.870149 -22.12799 6.146604 -0 17.2085 -0 -4.261772 -2.686977 -7.215912 -3.202055 18.26094 -8.318117 -0 38.92148 -0 -5.4656 -11.45178 13.83917 -0.7716469 -0.929672 1.679034 2.788982 9.556699 -8.807676 1.620161 21.3192 5.551223 2.287714 -20.98723 7.385147 2.279414 -13.84068 10.3084 92.48722 26.85359 -24.10322 -0 0 3.784493 -12.99017 10.53895 6.124598 5.930713 -22.19609 -3.411653 -82.8243 21.63223 5.509013 0 0 -24.94128 7.439873 7.135738 3.888872
1710.757 94.37081 2498.813 3.935771 -2.776698 69.26087 7.238103 -17.53943 6.664429 -0 18.27007 -0 -4.689028 -4.081044 -6.466891 -2.985513 13.65475 -8.079318 -0 48.6832 -0 -5.701102 -8.553213 14.47924 -0.6172285 -0.4255971 2.438895 2.790961 10.08061 -8.357785 1.552401 21.6616 5.565082 2.546602 -20.83554 7.156307 3.083407 -14.0026 10.67623 91.47291 27.97838 -23.05923 -0 0 4.346776 -12.87451 10.55706 6.148111 5.260734 -21.60794 -3.270066 -84.3485 21.7331 7.595256 0 0 -22.25869 7.311194 6.9936 3.944111
1716.758 95.97326 2501.565 4.896935 -2.767168 68.53553 6.822282 -11.76969 6.680452 -0 17.78886 -0 -5.125912 -5.961912 -5.719745 -2.93306 7.338462 -7.587537 -0 56.47131 -0 -5.823108 -6.632252 15.24847 -0.7808634 0.129136 3.629124 2.508548 10.43731 -7.581 1.595141 22.19567 5.393685 2.719242 -20.41883 6.853777 3.417711 -14.48906 10.93742 90.26182 28.5148 -21.50167 -0 0 5.600489 -13.22341 10.2622 6.435117 4.765152 -20.9953 -3.069745 -85.99151 22.19314 9.928505 0 0 -19.88221 6.68147 6.973505 4.708419
1722.391 97.47983 2504.158 5.909643 -2.575376 67.69857 6.056416 -5.750839 6.342793 -0 16.46357 -0 -5.33995 -8.024449 -5.09081 -2.726278 0.2748176 -6.904856 -0 60.21011 -0 -6.00158 -5.798056 16.09763 -1.060942 0.6844063 4.867918 1.965243 10.54248 -6.604334 1.701106 22.75557 5.151698 2.789226 -19.81345 6.573065 3.311249 -15.23734 11.07544 88.86843 28.57092 -19.42052 -0 0 7.504078 -14.12727 9.977352 7.006032 4.559543 -20.32939 -2.833852 -87.56534 22.85944 12.27896 0 0 -17.97252 5.673772 7.106236 6.011272
